<mxfile host="app.diagrams.net" agent="Mozilla/5.0 (Windows NT 10.0; Win64; x64; rv:132.0) Gecko/20100101 Firefox/132.0" version="24.8.9">
  <diagram name="Page-1" id="JkAvYPB6bSPPSsX-lN9P">
    <mxGraphModel dx="2022" dy="652" grid="1" gridSize="10" guides="1" tooltips="1" connect="1" arrows="1" fold="1" page="1" pageScale="1" pageWidth="827" pageHeight="1169" math="0" shadow="0">
      <root>
        <mxCell id="0" />
        <mxCell id="1" parent="0" />
        <mxCell id="2Rfy4oAWT55w4NdHT_DB-2" style="edgeStyle=orthogonalEdgeStyle;rounded=0;orthogonalLoop=1;jettySize=auto;html=1;" edge="1" parent="1" source="2Rfy4oAWT55w4NdHT_DB-1" target="2Rfy4oAWT55w4NdHT_DB-3">
          <mxGeometry relative="1" as="geometry">
            <mxPoint x="200" y="70" as="targetPoint" />
          </mxGeometry>
        </mxCell>
        <mxCell id="2Rfy4oAWT55w4NdHT_DB-1" value="main" style="rounded=0;whiteSpace=wrap;html=1;" vertex="1" parent="1">
          <mxGeometry x="40" y="40" width="120" height="60" as="geometry" />
        </mxCell>
        <mxCell id="2Rfy4oAWT55w4NdHT_DB-4" style="edgeStyle=orthogonalEdgeStyle;rounded=0;orthogonalLoop=1;jettySize=auto;html=1;" edge="1" parent="1" source="2Rfy4oAWT55w4NdHT_DB-3" target="2Rfy4oAWT55w4NdHT_DB-5">
          <mxGeometry relative="1" as="geometry">
            <mxPoint x="430" y="70" as="targetPoint" />
          </mxGeometry>
        </mxCell>
        <mxCell id="2Rfy4oAWT55w4NdHT_DB-3" value="initGame" style="rounded=1;whiteSpace=wrap;html=1;" vertex="1" parent="1">
          <mxGeometry x="240" y="40" width="120" height="60" as="geometry" />
        </mxCell>
        <mxCell id="2Rfy4oAWT55w4NdHT_DB-26" style="edgeStyle=orthogonalEdgeStyle;rounded=0;orthogonalLoop=1;jettySize=auto;html=1;entryX=0.5;entryY=0;entryDx=0;entryDy=0;" edge="1" parent="1" source="2Rfy4oAWT55w4NdHT_DB-5" target="2Rfy4oAWT55w4NdHT_DB-24">
          <mxGeometry relative="1" as="geometry" />
        </mxCell>
        <mxCell id="2Rfy4oAWT55w4NdHT_DB-5" value="initStartingGrid" style="rounded=1;whiteSpace=wrap;html=1;" vertex="1" parent="1">
          <mxGeometry x="400" y="40" width="120" height="60" as="geometry" />
        </mxCell>
        <mxCell id="2Rfy4oAWT55w4NdHT_DB-16" style="edgeStyle=orthogonalEdgeStyle;rounded=0;orthogonalLoop=1;jettySize=auto;html=1;" edge="1" parent="1" source="2Rfy4oAWT55w4NdHT_DB-14" target="2Rfy4oAWT55w4NdHT_DB-17">
          <mxGeometry relative="1" as="geometry">
            <mxPoint x="200" y="175" as="targetPoint" />
          </mxGeometry>
        </mxCell>
        <mxCell id="2Rfy4oAWT55w4NdHT_DB-14" value="clear screen" style="rounded=1;whiteSpace=wrap;html=1;" vertex="1" parent="1">
          <mxGeometry x="250" y="145" width="120" height="60" as="geometry" />
        </mxCell>
        <mxCell id="2Rfy4oAWT55w4NdHT_DB-18" style="edgeStyle=orthogonalEdgeStyle;rounded=0;orthogonalLoop=1;jettySize=auto;html=1;entryX=1;entryY=0.5;entryDx=0;entryDy=0;" edge="1" parent="1" source="2Rfy4oAWT55w4NdHT_DB-17" target="2Rfy4oAWT55w4NdHT_DB-19">
          <mxGeometry relative="1" as="geometry">
            <mxPoint x="70" y="175" as="targetPoint" />
          </mxGeometry>
        </mxCell>
        <mxCell id="2Rfy4oAWT55w4NdHT_DB-17" value="show end message" style="rounded=1;whiteSpace=wrap;html=1;" vertex="1" parent="1">
          <mxGeometry x="100" y="145" width="120" height="60" as="geometry" />
        </mxCell>
        <mxCell id="2Rfy4oAWT55w4NdHT_DB-21" style="edgeStyle=orthogonalEdgeStyle;rounded=0;orthogonalLoop=1;jettySize=auto;html=1;entryX=1;entryY=0.5;entryDx=0;entryDy=0;" edge="1" parent="1" source="2Rfy4oAWT55w4NdHT_DB-19" target="2Rfy4oAWT55w4NdHT_DB-22">
          <mxGeometry relative="1" as="geometry">
            <mxPoint x="-90" y="175" as="targetPoint" />
          </mxGeometry>
        </mxCell>
        <mxCell id="2Rfy4oAWT55w4NdHT_DB-19" value="wait for input" style="shape=parallelogram;perimeter=parallelogramPerimeter;whiteSpace=wrap;html=1;fixedSize=1;" vertex="1" parent="1">
          <mxGeometry x="-50" y="145" width="120" height="60" as="geometry" />
        </mxCell>
        <mxCell id="2Rfy4oAWT55w4NdHT_DB-22" value="terminate program" style="rounded=0;whiteSpace=wrap;html=1;" vertex="1" parent="1">
          <mxGeometry x="-200" y="145" width="120" height="60" as="geometry" />
        </mxCell>
        <mxCell id="2Rfy4oAWT55w4NdHT_DB-25" style="edgeStyle=orthogonalEdgeStyle;rounded=0;orthogonalLoop=1;jettySize=auto;html=1;entryX=1;entryY=0.5;entryDx=0;entryDy=0;" edge="1" parent="1" source="2Rfy4oAWT55w4NdHT_DB-24" target="2Rfy4oAWT55w4NdHT_DB-14">
          <mxGeometry relative="1" as="geometry" />
        </mxCell>
        <mxCell id="2Rfy4oAWT55w4NdHT_DB-29" value="yes" style="edgeLabel;html=1;align=center;verticalAlign=middle;resizable=0;points=[];" vertex="1" connectable="0" parent="2Rfy4oAWT55w4NdHT_DB-25">
          <mxGeometry x="-0.4603" y="-1" relative="1" as="geometry">
            <mxPoint x="-3" y="1" as="offset" />
          </mxGeometry>
        </mxCell>
        <mxCell id="2Rfy4oAWT55w4NdHT_DB-30" style="edgeStyle=orthogonalEdgeStyle;rounded=0;orthogonalLoop=1;jettySize=auto;html=1;" edge="1" parent="1" source="2Rfy4oAWT55w4NdHT_DB-24" target="2Rfy4oAWT55w4NdHT_DB-31">
          <mxGeometry relative="1" as="geometry">
            <mxPoint x="460" y="300" as="targetPoint" />
          </mxGeometry>
        </mxCell>
        <mxCell id="2Rfy4oAWT55w4NdHT_DB-33" value="no" style="edgeLabel;html=1;align=center;verticalAlign=middle;resizable=0;points=[];" vertex="1" connectable="0" parent="2Rfy4oAWT55w4NdHT_DB-30">
          <mxGeometry x="-0.5086" y="-1" relative="1" as="geometry">
            <mxPoint x="1" y="8" as="offset" />
          </mxGeometry>
        </mxCell>
        <mxCell id="2Rfy4oAWT55w4NdHT_DB-24" value="&lt;div&gt;esc&amp;nbsp;&lt;/div&gt;&lt;div&gt;pressed?&lt;/div&gt;" style="rhombus;whiteSpace=wrap;html=1;" vertex="1" parent="1">
          <mxGeometry x="415" y="130" width="90" height="90" as="geometry" />
        </mxCell>
        <mxCell id="2Rfy4oAWT55w4NdHT_DB-34" style="edgeStyle=orthogonalEdgeStyle;rounded=0;orthogonalLoop=1;jettySize=auto;html=1;" edge="1" parent="1" source="2Rfy4oAWT55w4NdHT_DB-31" target="2Rfy4oAWT55w4NdHT_DB-35">
          <mxGeometry relative="1" as="geometry">
            <mxPoint x="340" y="300" as="targetPoint" />
          </mxGeometry>
        </mxCell>
        <mxCell id="2Rfy4oAWT55w4NdHT_DB-31" value="draw hud" style="rounded=1;whiteSpace=wrap;html=1;" vertex="1" parent="1">
          <mxGeometry x="400" y="270" width="120" height="60" as="geometry" />
        </mxCell>
        <mxCell id="2Rfy4oAWT55w4NdHT_DB-35" value="draw grid" style="rounded=1;whiteSpace=wrap;html=1;" vertex="1" parent="1">
          <mxGeometry x="250" y="270" width="120" height="60" as="geometry" />
        </mxCell>
        <mxCell id="2Rfy4oAWT55w4NdHT_DB-40" style="edgeStyle=orthogonalEdgeStyle;rounded=0;orthogonalLoop=1;jettySize=auto;html=1;" edge="1" parent="1" source="2Rfy4oAWT55w4NdHT_DB-37" target="2Rfy4oAWT55w4NdHT_DB-39">
          <mxGeometry relative="1" as="geometry" />
        </mxCell>
        <mxCell id="2Rfy4oAWT55w4NdHT_DB-37" value="get usr input" style="shape=parallelogram;perimeter=parallelogramPerimeter;whiteSpace=wrap;html=1;fixedSize=1;" vertex="1" parent="1">
          <mxGeometry x="100" y="270" width="120" height="60" as="geometry" />
        </mxCell>
        <mxCell id="2Rfy4oAWT55w4NdHT_DB-38" style="edgeStyle=orthogonalEdgeStyle;rounded=0;orthogonalLoop=1;jettySize=auto;html=1;entryX=0.893;entryY=0.53;entryDx=0;entryDy=0;entryPerimeter=0;" edge="1" parent="1" source="2Rfy4oAWT55w4NdHT_DB-35" target="2Rfy4oAWT55w4NdHT_DB-37">
          <mxGeometry relative="1" as="geometry" />
        </mxCell>
        <mxCell id="2Rfy4oAWT55w4NdHT_DB-41" style="edgeStyle=orthogonalEdgeStyle;rounded=0;orthogonalLoop=1;jettySize=auto;html=1;entryX=1;entryY=0.5;entryDx=0;entryDy=0;" edge="1" parent="1" source="2Rfy4oAWT55w4NdHT_DB-39" target="2Rfy4oAWT55w4NdHT_DB-24">
          <mxGeometry relative="1" as="geometry">
            <Array as="points">
              <mxPoint x="10" y="370" />
              <mxPoint x="560" y="370" />
              <mxPoint x="560" y="175" />
            </Array>
          </mxGeometry>
        </mxCell>
        <mxCell id="2Rfy4oAWT55w4NdHT_DB-39" value="update blob position" style="rounded=1;whiteSpace=wrap;html=1;" vertex="1" parent="1">
          <mxGeometry x="-50" y="270" width="120" height="60" as="geometry" />
        </mxCell>
      </root>
    </mxGraphModel>
  </diagram>
</mxfile>
